<?xml version="1.0" encoding="UTF-8"?>
<svg version="1.1" xmlns="http://www.w3.org/2000/svg" width="500" height="500">
<path d="M0 0 C2.06357338 1.86915407 4.16842738 3.66385862 6.30078125 5.453125 C45.66654872 40.01626884 70.36042433 95.46675805 74.36328125 147.140625 C74.66827972 153.27979529 74.69363783 159.42012656 74.67895508 165.56567383 C74.67580453 168.30786329 74.69932678 171.04895903 74.72460938 173.79101562 C74.7862485 190.75182784 72.70842984 207.2949655 68.61328125 223.765625 C68.35434082 224.81427734 68.09540039 225.86292969 67.82861328 226.94335938 C58.68775557 262.80742993 40.16614105 295.54116802 14.87109375 322.421875 C13.09588399 324.34640147 11.41631577 326.26373819 9.76171875 328.28515625 C7.86872803 330.53886344 6.09411805 332.43698381 3.86328125 334.328125 C3.17105469 334.9159375 2.47882813 335.50375 1.765625 336.109375 C0.97285156 336.7796875 0.18007813 337.45 -0.63671875 338.140625 C-1.56355469 338.9553125 -2.49039062 339.77 -3.4453125 340.609375 C-17.32507886 352.73947917 -32.28516478 362.66258755 -48.63671875 371.140625 C-49.28447266 371.48544922 -49.93222656 371.83027344 -50.59960938 372.18554688 C-77.51616348 386.40613622 -109.78689195 395.10233243 -140.2265625 395.37890625 C-141.12049713 395.38865479 -142.01443176 395.39840332 -142.93545532 395.40844727 C-162.5091776 395.57798461 -181.44600345 395.46797776 -200.63671875 391.140625 C-201.48830566 390.95338867 -202.33989258 390.76615234 -203.21728516 390.57324219 C-208.76348688 389.31958191 -214.20577109 387.8217428 -219.63671875 386.140625 C-220.42143555 385.90005371 -221.20615234 385.65948242 -222.01464844 385.41162109 C-254.13318303 375.36246188 -283.83792145 358.13058554 -308.03222656 334.69384766 C-309.17941017 333.58332086 -310.33316672 332.47956788 -311.49121094 331.38037109 C-321.66140632 321.70891127 -330.49620088 311.56828785 -338.63671875 300.140625 C-339.07677246 299.53460449 -339.51682617 298.92858398 -339.97021484 298.30419922 C-364.00380296 265.02621367 -379.46668701 221.47093995 -379.875 180.2421875 C-379.88474854 179.41771118 -379.89449707 178.59323486 -379.90454102 177.74377441 C-380.14821033 151.76740744 -378.40128193 127.10659926 -370.63671875 102.140625 C-370.40146484 101.36799316 -370.16621094 100.59536133 -369.92382812 99.79931641 C-360.017571 67.82615273 -343.01829696 39.16701857 -320.14453125 14.859375 C-318.36818297 12.93361425 -316.68718183 11.01475206 -315.03125 8.9921875 C-313.1563279 6.75940914 -311.41054014 4.88477887 -309.19921875 3.015625 C-306.65062939 0.85620571 -304.12166085 -1.31434359 -301.640625 -3.55078125 C-288.04300458 -15.68611869 -272.7779065 -25.4487867 -256.63671875 -33.859375 C-255.92499512 -34.2315918 -255.21327148 -34.60380859 -254.47998047 -34.98730469 C-172.14091363 -77.4323609 -67.92875135 -62.11836049 0 0 Z " fill="#0B2C54" transform="translate(397.63671875,72.859375)"/>
<path d="M0 0 C1.26755127 -0.01772461 2.53510254 -0.03544922 3.84106445 -0.05371094 C15.38031651 -0.04466468 25.44358188 2.55635163 36.1875 6.5625 C37.39466675 7.00831421 37.39466675 7.00831421 38.6262207 7.46313477 C45.69859091 10.1496918 52.23867305 13.4664918 58.75 17.3125 C55.56195614 20.54018206 52.31785215 23.66211213 48.9375 26.6875 C48.07382812 27.4609375 47.21015625 28.234375 46.3203125 29.03125 C43.37802998 31.64263752 40.41776048 34.23222268 37.44140625 36.8046875 C35.81542225 38.25417901 34.28348187 39.76639798 32.75 41.3125 C34.11257935 41.32651855 34.11257935 41.32651855 35.50268555 41.34082031 C51.80021253 41.54980237 67.96093578 41.96516267 84.125 44.1875 C85.32858154 44.34895508 86.53216309 44.51041016 87.7722168 44.67675781 C103.36224257 46.99908431 111.89559048 58.69834121 120.96704102 70.68652344 C125.93405827 77.39626265 130.44855649 84.34478721 134.69384766 91.53027344 C135.6773961 93.18998302 136.6873122 94.83398874 137.69921875 96.4765625 C138.25222656 97.41242188 138.80523437 98.34828125 139.375 99.3125 C139.84164063 100.09625 140.30828125 100.88 140.7890625 101.6875 C143.3030297 108.5549226 141.27999496 115.91178931 139.75 122.8125 C139.42213501 124.30124634 139.42213501 124.30124634 139.08764648 125.82006836 C135.32947625 142.14986224 129.81288906 158.11658717 122.75 173.3125 C117.88362195 172.74434419 113.60831869 171.70981754 109 170.0625 C92.62669811 164.4125578 75.68425738 160.83490015 58.75 157.3125 C57.83750488 157.11833496 56.92500977 156.92416992 55.98486328 156.72412109 C55.10427246 156.54059082 54.22368164 156.35706055 53.31640625 156.16796875 C52.53338135 156.00321045 51.75035645 155.83845215 50.94360352 155.66870117 C48.4623418 155.2056451 48.4623418 155.2056451 44.75 155.3125 C45.49830078 156.19035156 45.49830078 156.19035156 46.26171875 157.0859375 C59.72495897 173.1838154 71.27936106 190.73367958 82.74902344 208.27734375 C84.48186876 210.90578849 86.25004606 213.50346214 88.0390625 216.09375 C88.90275099 217.39470014 89.76491767 218.69666295 90.625 220 C91.34429687 221.05574219 92.06359375 222.11148438 92.8046875 223.19921875 C93.844719 226.62444646 93.76434939 227.09247385 92.32421875 230.16796875 C89.7249005 234.61297244 86.74278818 238.79724504 83.6875 242.9375 C83.11531738 243.72020264 82.54313477 244.50290527 81.95361328 245.30932617 C73.34253702 257.02578225 64.27204085 268.32525421 54.75 279.3125 C53.53957031 280.71048828 53.53957031 280.71048828 52.3046875 282.13671875 C50.15396702 284.57541706 48.02373818 286.98779872 45.75 289.3125 C45.31179932 289.81442871 44.87359863 290.31635742 44.42211914 290.83349609 C38.88961202 296.48471167 32.2537181 297.00400617 24.6875 298.0625 C23.33121803 298.26609376 21.97509933 298.47077796 20.61914062 298.67651367 C16.66783569 299.26428993 12.71113775 299.79506572 8.75 300.3125 C7.73824707 300.44672363 6.72649414 300.58094727 5.68408203 300.71923828 C-10.57193007 302.7769247 -26.8976698 302.52831756 -43.25 302.3125 C-79.25 239.26902174 -79.25 239.26902174 -79.25 224.3125 C-79.91 224.3125 -80.57 224.3125 -81.25 224.3125 C-81.34796875 224.88355469 -81.4459375 225.45460938 -81.546875 226.04296875 C-82.42799771 230.82078071 -83.54607788 235.38320067 -85.0625 240 C-90.909833 258.62886386 -93.6224818 278.01951862 -96.25 297.3125 C-105.13243655 296.84184716 -113.58208655 295.66753524 -122.25 293.6875 C-123.40540283 293.4282373 -124.56080566 293.16897461 -125.7512207 292.90185547 C-136.50185723 290.40700385 -146.88130606 287.06878998 -157.25 283.3125 C-145.96457051 300.04106269 -130.80385582 320.78071105 -112.890625 330.796875 C-101.27852162 337.69212773 -101.27852162 337.69212773 -99.40673828 344.28076172 C-98.49550264 351.22726787 -98.75374361 358.13429957 -99.12158203 365.11425781 C-99.29544721 369.44436012 -99.04141619 373.68614373 -98.6875 378 C-98.60371094 379.24136719 -98.51992187 380.48273438 -98.43359375 381.76171875 C-98.37300781 382.60347656 -98.31242187 383.44523437 -98.25 384.3125 C-135.03425014 371.0920898 -166.84123849 329.12156171 -183.12109375 295.5 C-187.14514368 286.90803245 -190.73499361 278.47650083 -193.25 269.3125 C-185.75151713 271.7059712 -178.4825793 274.54913411 -171.1875 277.5 C-170.03572266 277.96341797 -168.88394531 278.42683594 -167.69726562 278.90429688 C-164.88054626 280.0379972 -162.06482853 281.17411501 -159.25 282.3125 C-159.57162109 281.79042969 -159.89324219 281.26835937 -160.22460938 280.73046875 C-170.76231349 263.56348144 -179.5706506 246.72767882 -186.37744141 227.74267578 C-186.96017318 226.11970093 -187.56155567 224.50330481 -188.18115234 222.89404297 C-191.22936555 214.63364423 -189.00557249 209.06794756 -185.8125 201.1875 C-185.45978027 200.31512695 -185.10706055 199.44275391 -184.74365234 198.54394531 C-178.79349884 184.10725273 -171.70389611 170.48227155 -163.18359375 157.40234375 C-161.16251983 154.44204719 -161.16251983 154.44204719 -160.25 151.3125 C-172.02646002 154.17738694 -183.09154091 157.57315447 -194.25 162.3125 C-195.24 162.6425 -196.23 162.9725 -197.25 163.3125 C-197.66887553 156.02096302 -196.70059635 150.16674571 -194.25 143.3125 C-193.93458252 142.40459717 -193.61916504 141.49669434 -193.29418945 140.5612793 C-174.32915042 87.11519854 -136.30259735 44.14893715 -85.3125 19.25 C-68.10703484 11.0908372 -50.00450516 5.50716391 -31.25 2.3125 C-30.03699219 2.08820312 -28.82398438 1.86390625 -27.57421875 1.6328125 C-18.41485979 0.19643612 -9.25546045 0.07842057 0 0 Z " fill="#1E3C6C" transform="translate(242.25,35.6875)"/>
<path d="M0 0 C0.13462646 0.88631104 0.13462646 0.88631104 0.27197266 1.79052734 C4.26196954 27.69320947 10.25832528 52.29323597 19 77 C19.27710815 76.20456787 19.27710815 76.20456787 19.55981445 75.39306641 C27.05431513 54.01859561 35.53888596 33.10174855 46 13 C47.17570071 10.67107612 48.33760561 8.33562696 49.5 6 C50.33309311 4.33321324 51.16638235 2.66652448 52 1 C67.23753069 1.46360875 82.28433186 2.71024524 97.42480469 4.47412109 C100.89151097 4.87691841 104.35961914 5.26538185 107.828125 5.65234375 C113.27225505 6.26725244 118.70871773 6.92816675 124.14196777 7.63269043 C125.95232451 7.86535448 127.76385494 8.08919903 129.57678223 8.30090332 C142.74910001 9.86914949 142.74910001 9.86914949 147.11328125 14.6796875 C148.10962569 16.09641005 149.07313629 17.53687708 150 19 C151.00604677 20.30071437 152.02045145 21.5950057 153.04296875 22.8828125 C154.09714596 24.29240761 155.14499502 25.70675062 156.1875 27.125 C157.05894653 28.30980957 157.05894653 28.30980957 157.94799805 29.51855469 C163.59894663 37.29673867 168.97255069 45.2568652 174.3125 53.25 C174.72825287 53.8705426 175.14400574 54.49108521 175.57235718 55.13043213 C178.00797682 58.77221583 180.40357738 62.43670954 182.77154541 66.12280273 C184.06439992 68.0984093 185.40422924 70.03694841 186.74755859 71.97851562 C193.0787917 81.38199109 193.0787917 81.38199109 192.88232422 85.41650391 C191.83728935 87.61774756 190.61228522 89.17629201 189 91 C188.04309168 92.40364268 187.0941471 93.81274046 186.15234375 95.2265625 C185.08770475 96.69778146 184.01580939 98.16377097 182.9375 99.625 C182.36531738 100.40770264 181.79313477 101.19040527 181.20361328 101.99682617 C172.59253702 113.71328225 163.52204085 125.01275421 154 136 C153.19304687 136.93199219 152.38609375 137.86398437 151.5546875 138.82421875 C149.40396702 141.26291706 147.27373818 143.67529872 145 146 C144.56179932 146.50192871 144.12359863 147.00385742 143.67211914 147.52099609 C138.13961202 153.17221167 131.5037181 153.69150617 123.9375 154.75 C122.58121803 154.95359376 121.22509933 155.15827796 119.86914062 155.36401367 C115.91783569 155.95178993 111.96113775 156.48256572 108 157 C106.98824707 157.13422363 105.97649414 157.26844727 104.93408203 157.40673828 C88.67806993 159.4644247 72.3523302 159.21581756 56 159 C20 95.95652174 20 95.95652174 20 81 C19.34 81 18.68 81 18 81 C17.90203125 81.57105469 17.8040625 82.14210938 17.703125 82.73046875 C16.82200229 87.50828071 15.70392212 92.07070067 14.1875 96.6875 C8.340167 115.31636386 5.6275182 134.70701862 3 154 C-5.88243655 153.52934716 -14.33208655 152.35503524 -23 150.375 C-24.15540283 150.1157373 -25.31080566 149.85647461 -26.5012207 149.58935547 C-37.25185723 147.09450385 -47.63130606 143.75628998 -58 140 C-46.71457051 156.72856269 -31.55385582 177.46821105 -13.640625 187.484375 C-2.02852162 194.37962773 -2.02852162 194.37962773 -0.15673828 200.96826172 C0.75449736 207.91476787 0.49625639 214.82179957 0.12841797 221.80175781 C-0.04544721 226.13186012 0.20858381 230.37364373 0.5625 234.6875 C0.64628906 235.92886719 0.73007813 237.17023438 0.81640625 238.44921875 C0.87699219 239.29097656 0.93757813 240.13273438 1 241 C-35.78425014 227.7795898 -67.59123849 185.80906171 -83.87109375 152.1875 C-87.89514368 143.59553245 -91.48499361 135.16400083 -94 126 C-86.50151713 128.3934712 -79.2325793 131.23663411 -71.9375 134.1875 C-70.78572266 134.65091797 -69.63394531 135.11433594 -68.44726562 135.59179688 C-65.63054626 136.7254972 -62.81482853 137.86161501 -60 139 C-60.32162109 138.47792969 -60.64324219 137.95585937 -60.97460938 137.41796875 C-71.51231349 120.25098144 -80.3206506 103.41517882 -87.12744141 84.43017578 C-87.71017318 82.80720093 -88.31155567 81.19080481 -88.93115234 79.58154297 C-91.97936555 71.32114423 -89.75557249 65.75544756 -86.5625 57.875 C-86.20978027 57.00262695 -85.85706055 56.13025391 -85.49365234 55.23144531 C-79.08496524 39.68222536 -71.34017453 24.98455489 -62 11 C-61.52691406 10.22785156 -61.05382812 9.45570313 -60.56640625 8.66015625 C-50.65432911 -1.84516241 -14.01596678 0 0 0 Z " fill="#FDFDFE" transform="translate(143,179)"/>
<path d="M0 0 C1.94629338 -0.01554324 3.89248675 -0.04233037 5.83865356 -0.06942749 C17.37825366 -0.06113701 27.44189174 2.54029555 38.18606567 6.54653931 C39.39323242 6.99235352 39.39323242 6.99235352 40.62478638 7.44717407 C47.69715658 10.13373111 54.23723873 13.45053111 60.74856567 17.29653931 C57.56052181 20.52422137 54.31641783 23.64615144 50.93606567 26.67153931 C50.0723938 27.44497681 49.20872192 28.21841431 48.31887817 29.01528931 C45.37659566 31.62667683 42.41632615 34.21626198 39.43997192 36.78872681 C37.81398792 38.23821832 36.28204755 39.75043729 34.74856567 41.29653931 C36.11114502 41.31055786 36.11114502 41.31055786 37.50125122 41.32485962 C53.7987782 41.53384167 69.95950145 41.94920198 86.12356567 44.17153931 C87.92893799 44.41372192 87.92893799 44.41372192 89.77078247 44.66079712 C105.36080825 46.98312361 113.89415616 58.68238052 122.96560669 70.67056274 C127.93262394 77.38030196 132.44712217 84.32882651 136.69241333 91.51431274 C137.67596177 93.17402232 138.68587787 94.81802804 139.69778442 96.46060181 C140.25079224 97.39646118 140.80380005 98.33232056 141.37356567 99.29653931 C142.07352661 100.47216431 142.07352661 100.47216431 142.78762817 101.67153931 C145.30159538 108.53896191 143.27856064 115.89582861 141.74856567 122.79653931 C141.52998901 123.78903687 141.31141235 124.78153442 141.08621216 125.80410767 C137.32804192 142.13390154 131.81145474 158.10062647 124.74856567 173.29653931 C119.88218762 172.72838349 115.60688437 171.69385685 110.99856567 170.04653931 C98.24382238 165.64525465 85.17032752 162.54679116 71.99856567 159.67153931 C71.02306763 159.45433228 70.04756958 159.23712524 69.04251099 159.01333618 C64.81522322 158.0898232 60.64741336 157.23036868 56.34231567 156.77310181 C48.71665938 155.82764442 44.66130933 154.16619738 39.87356567 148.29653931 C38.5259064 146.5448973 37.22177254 144.77244898 35.94241333 142.97036743 C26.0697542 129.12845516 13.57601642 117.06191346 1.62356567 105.04653931 C0.7193689 104.13533325 0.7193689 104.13533325 -0.20309448 103.20571899 C-3.73482459 99.68684593 -7.37416687 96.43135129 -11.25143433 93.29653931 C-4.04609255 81.53085463 5.50295473 71.46671135 14.74856567 61.29653931 C15.51169067 60.44060181 16.27481567 59.58466431 17.06106567 58.70278931 C21.48236586 53.74376342 25.99611063 48.93877252 30.74856567 44.29653931 C24.53117621 44.16675285 18.74687491 44.56540222 12.62356567 45.60903931 C11.79590698 45.74656616 10.96824829 45.88409302 10.11550903 46.02578735 C7.6580919 46.4397354 5.20324633 46.86670154 2.74856567 47.29653931 C1.47368286 47.51310181 0.19880005 47.72966431 -1.11471558 47.95278931 C-15.81957447 50.65269782 -30.19750072 54.9368928 -43.78414917 61.19985962 C-47.73719123 62.95960727 -50.14886632 63.85025051 -54.25143433 62.29653931 C-56.79181602 60.98915819 -59.26864822 59.6419909 -61.75143433 58.23403931 C-71.51240516 52.8572795 -81.77493103 49.03451125 -92.25143433 45.29653931 C-92.80261564 39.48578041 -90.91092896 35.33745569 -88.56393433 30.17153931 C-88.22426636 29.37360962 -87.88459839 28.57567993 -87.53463745 27.75357056 C-84.57215441 21.11982349 -81.40602853 18.10073136 -74.66159058 15.29653931 C-72.88336601 14.61841412 -71.10054721 13.95224564 -69.31393433 13.29653931 C-68.37533569 12.94696167 -67.43673706 12.59738403 -66.46969604 12.23721313 C-54.28886709 7.76157842 -42.04918494 4.52395419 -29.25143433 2.29653931 C-28.11319214 2.08900024 -26.97494995 1.88146118 -25.80221558 1.66763306 C-17.21302316 0.33979034 -8.68230963 0.06902304 0 0 Z " fill="#FDFEFE" transform="translate(240.25143432617188,35.703460693359375)"/>
<path d="M0 0 C3.21618882 1.57219945 5.67586587 3.25651124 8 6 C10.64980777 16.2140846 6.31589003 28.93181921 4 39 C3.72285156 40.24523437 3.44570313 41.49046875 3.16015625 42.7734375 C-5.15385027 76.87235824 -22.50131466 106.78048912 -45.9375 132.625 C-46.4106665 133.14690918 -46.88383301 133.66881836 -47.37133789 134.20654297 C-50.75525284 137.87762642 -50.75525284 137.87762642 -53 139 C-54.17322847 135.06442471 -55.33745371 131.12624273 -56.5 127.1875 C-56.83386719 126.06794922 -57.16773438 124.94839844 -57.51171875 123.79492188 C-57.98544922 122.18520508 -57.98544922 122.18520508 -58.46875 120.54296875 C-58.76201172 119.55321045 -59.05527344 118.56345215 -59.35742188 117.54370117 C-60 115 -60 115 -60 112 C-62.90387376 114.57530089 -64.61020091 117.54101117 -66.5625 120.875 C-74.84560307 134.66071418 -85.44981973 146.49366085 -96.75 157.875 C-97.56464722 158.69677734 -97.56464722 158.69677734 -98.39575195 159.53515625 C-112.99505227 174.07387856 -135.52356654 174.24978011 -155.32836914 174.27685547 C-161.55348973 174.2502869 -167.77675035 174.15744331 -174 174 C-173.21085205 174.78769775 -172.4217041 175.57539551 -171.60864258 176.38696289 C-170.14839424 177.84967117 -168.69394413 179.31843566 -167.26171875 180.80859375 C-163.61074591 184.58639939 -159.82449474 187.7458433 -155.50390625 190.73828125 C-155.00761719 191.15464844 -154.51132812 191.57101562 -154 192 C-154 192.66 -154 193.32 -154 194 C-156.39421499 194.48867803 -158.78991158 194.96587922 -161.1875 195.4375 C-161.84169922 195.57220703 -162.49589844 195.70691406 -163.16992188 195.84570312 C-207.19657463 204.40064513 -257.37160555 195.56166414 -296 173 C-296 172.34 -296 171.68 -296 171 C-295.21463867 170.69819824 -294.42927734 170.39639648 -293.62011719 170.08544922 C-290.64365011 168.93833298 -287.66934058 167.78581964 -284.69628906 166.62988281 C-283.42105795 166.13527486 -282.1450415 165.64268589 -280.86816406 165.15234375 C-273.16629715 162.19288623 -265.80415465 159.03606195 -258.59472656 155.00830078 C-253.46098374 153.01334803 -249.11929499 155.69825473 -244.3125 157.75 C-236.45180283 160.99319736 -228.45516445 163.3246862 -220.22460938 165.4296875 C-218.11940267 165.96938931 -216.02093921 166.53073569 -213.921875 167.09375 C-201.7846235 170.24136834 -189.44588111 171.63580947 -177 173 C-181.26938298 168.00895255 -185.66126348 163.25833041 -190.375 158.6875 C-196.03137707 153.1138873 -201.08585699 147.24179141 -206 141 C-206.77988281 140.07574219 -207.55976563 139.15148437 -208.36328125 138.19921875 C-209.10964844 137.30847656 -209.85601562 136.41773438 -210.625 135.5 C-211.29789062 134.7059375 -211.97078125 133.911875 -212.6640625 133.09375 C-213.10492188 132.4028125 -213.54578125 131.711875 -214 131 C-212.57415125 126.72245374 -209.34724105 125.0900452 -205.8125 122.5625 C-195.40584393 114.93646146 -185.75661402 106.58648491 -176.25 97.875 C-175.70384033 97.37919434 -175.15768066 96.88338867 -174.5949707 96.37255859 C-172.10959862 94.08572995 -169.86723905 91.84014498 -167.703125 89.234375 C-160.54451769 80.75574081 -151.89108469 79.04156579 -141.48388672 76.59082031 C-125.08059702 72.6891139 -109.1215816 67.03193473 -93.54833984 60.62792969 C-92.75121582 60.30083008 -91.9540918 59.97373047 -91.1328125 59.63671875 C-90.43043457 59.34498779 -89.72805664 59.05325684 -89.00439453 58.75268555 C-87.02154671 58.00809117 -85.06327486 57.47113467 -83 57 C-74.00346873 73.60104911 -67.57945264 91.33821352 -61 109 C-56.22756018 103.26444733 -53.82040665 95.83434287 -51 89 C-50.70013184 88.28392578 -50.40026367 87.56785156 -50.09130859 86.83007812 C-43.3967756 70.63421834 -39.19321505 53.40171895 -37.1953125 36 C-36.21674708 29.47262983 -36.21674708 29.47262983 -33.41796875 26.9296875 C-31.81888672 25.91261719 -31.81888672 25.91261719 -30.1875 24.875 C-29.00534338 24.07525226 -27.82572695 23.27173921 -26.6484375 22.46484375 C-26.04354492 22.06507324 -25.43865234 21.66530273 -24.81542969 21.25341797 C-21.81299043 19.18045897 -19.07314966 16.81798245 -16.3125 14.4375 C-15.77882813 13.9825415 -15.24515625 13.52758301 -14.6953125 13.05883789 C-9.71452849 8.79755132 -4.83780751 4.42282628 0 0 Z " fill="#CBCBCB" transform="translate(442,249)"/>
<path d="M0 0 C7.48170222 -0.32306185 14.26564726 0.57825646 21.5625 2.1875 C22.6146167 2.41526123 23.6667334 2.64302246 24.75073242 2.87768555 C63.05399276 11.34896391 97.14345704 29.39973105 125.50830078 56.57128906 C126.88165496 57.88665218 128.2664824 59.1900085 129.65234375 60.4921875 C164.06038089 93.6500116 186.08557746 143.40349478 188 191 C188.10957031 191.96035156 188.21914063 192.92070312 188.33203125 193.91015625 C188.68965586 198.31681882 188.71463202 200.92570636 186.21484375 204.68359375 C184.23523808 206.92156066 182.21538453 208.99725282 180 211 C175.55391302 209.47323051 171.94611963 207.04432285 168.125 204.375 C163.45534314 201.13547296 158.83573877 198.35912706 153.68945312 195.94604492 C145.55292322 192.10103841 145.55292322 192.10103841 143.65234375 188.31640625 C143.17359613 185.81627978 143.00989265 183.53746414 143 181 C142.67 180.67 142.34 180.34 142 180 C140.45700734 184.27962115 139.09386304 188.28429433 138.5 192.8125 C138 196 138 196 136.62109375 197.7734375 C134.54044996 200.63118921 133.68919259 203.46050179 132.5625 206.8125 C126.37119379 224.1051791 116.94110368 240.13432912 106.34033203 255.06640625 C105.09960404 256.85630893 103.94579159 258.67451415 102.80859375 260.53125 C96.92631221 269.55000424 89.75858323 272.60184813 80 276 C78.34860102 276.59927669 76.69756949 277.19956677 75.046875 277.80078125 C70.8177193 279.32270881 66.56944019 280.78046071 62.31005859 282.21533203 C60.27974575 282.90497751 58.25822162 283.6203842 56.23828125 284.33984375 C48.3425469 287.10732959 40.3536021 289.30356016 32.25 291.375 C31.1887793 291.65029541 30.12755859 291.92559082 29.03417969 292.20922852 C28.03805664 292.45729248 27.04193359 292.70535645 26.015625 292.9609375 C24.67419434 293.29810791 24.67419434 293.29810791 23.30566406 293.64208984 C21 294 21 294 18 293 C18.44988281 292.63390625 18.89976562 292.2678125 19.36328125 291.890625 C29.84583227 283.06763617 38.38523165 272.54326136 46.68115234 261.71289062 C47.92664543 260.09527132 49.19127601 258.49243926 50.45703125 256.890625 C55.57210079 250.37903405 60.37153306 243.69688139 65.0625 236.875 C65.63532715 236.04460205 66.2081543 235.2142041 66.79833984 234.35864258 C67.33023926 233.5777124 67.86213867 232.79678223 68.41015625 231.9921875 C68.88590088 231.29464355 69.36164551 230.59709961 69.85180664 229.87841797 C71.15884394 227.89840477 71.15884394 227.89840477 72 225 C71.26748688 223.08185903 71.26748688 223.08185903 70 221.10546875 C69.53287598 220.3261499 69.06575195 219.54683105 68.58447266 218.74389648 C68.06159668 217.90028564 67.5387207 217.0566748 67 216.1875 C66.46036621 215.30457275 65.92073242 214.42164551 65.36474609 213.51196289 C52.95681527 193.43158892 39.30883375 173.81695797 24.2578125 155.6171875 C23 154 23 154 23 153 C46.72135838 155.71493003 69.55127289 162.00440817 92.25878906 169.14941406 C95.49255907 170.15283896 98.7379327 171.09335092 102 172 C102.17160645 171.46922852 102.34321289 170.93845703 102.52001953 170.39160156 C103.88082881 166.2398274 105.30737486 162.12835801 106.8671875 158.046875 C111.34083588 146.29442602 114.88803265 134.62960393 117.49511719 122.32568359 C117.83252647 120.77144721 118.19274292 119.2219927 118.57519531 117.67822266 C120.76926636 108.69252187 120.5410757 102.63248213 115.75 94.5625 C115.30325928 93.78753174 114.85651855 93.01256348 114.39624023 92.21411133 C107.21077764 79.9855667 98.92616052 68.41589635 89.49609375 57.81640625 C87.97522382 56.10036991 86.49585872 54.34471986 85.09765625 52.52734375 C79.81091729 46.15317927 73.50360538 45.24558142 65.6171875 44.31494141 C63.59831538 44.07199877 61.58324927 43.79729008 59.5703125 43.50927734 C49.03723977 42.05467261 38.62354561 41.58144947 28 41.375 C26.33852442 41.33667824 24.67706567 41.29761921 23.015625 41.2578125 C19.01055877 41.16341786 15.00540113 41.07885153 11 41 C18.6014229 31.81956189 27.28350185 23.91366214 37 17 C26.71676125 8.61637432 12.4594306 4.89624806 0 1 C0 0.67 0 0.34 0 0 Z " fill="#1F3D6D" transform="translate(263,37)"/>
<path d="M0 0 C0.66 0 1.32 0 2 0 C2.20044922 0.51159668 2.40089844 1.02319336 2.60742188 1.55029297 C7.43810178 13.8433327 12.4950027 25.99356723 18 38 C18.35175293 38.7719873 18.70350586 39.54397461 19.06591797 40.33935547 C23.58896092 50.22906512 28.42297449 59.8549787 33.81396484 69.30273438 C34.21566895 70.00720703 34.61737305 70.71167969 35.03125 71.4375 C35.38767578 72.05496094 35.74410156 72.67242187 36.11132812 73.30859375 C37 75 37 75 38 78 C61.97972278 77.53801705 85.92512484 76.36533998 109.54980469 71.91455078 C113.42439952 71.19037287 117.05871431 70.87207573 121 71 C113.25391187 80.46744104 104.42193171 89.20253927 95 97 C94.43265137 97.47050781 93.86530273 97.94101562 93.28076172 98.42578125 C85.04855083 105.23521758 76.75074285 111.86335618 68 118 C69.12451727 120.9719385 70.22293791 123.33440687 72 126 C64.34718163 127.41845035 56.6821463 128.74991325 49 130 C48.22188965 130.12729492 47.4437793 130.25458984 46.64208984 130.38574219 C28.97399311 133.12287929 10.81924404 132.16872509 -7 132 C-7.66 137.61 -8.32 143.22 -9 149 C-9.33 149 -9.66 149 -10 149 C-10.99 140.09 -10.99 140.09 -12 131 C-14.31 130.67 -16.62 130.34 -19 130 C-18.93296875 129.16597656 -18.8659375 128.33195313 -18.796875 127.47265625 C-18.69367143 120.31329349 -18.69367143 120.31329349 -22.38671875 114.44921875 C-25.52606265 112.18615778 -28.75204193 110.10321777 -32 108 C-34.64916884 105.77031438 -37.17612527 103.44326399 -39.71875 101.09375 C-41.68580323 99.28837238 -43.69694453 97.58007996 -45.75 95.875 C-56.861781 86.157815 -70.70275459 72.96466522 -76 59 C-70.68646882 60.4341804 -65.37831703 61.87827026 -60.09765625 63.4296875 C-45.24703455 67.72770126 -30.24733208 70.50291 -15 73 C-14.98582031 72.1234375 -14.97164062 71.246875 -14.95703125 70.34375 C-14.47650855 57.56444355 -11.83959478 45.43946342 -9 33 C-8.78263184 32.03175293 -8.56526367 31.06350586 -8.34130859 30.06591797 C-6.0438524 19.86451362 -3.63925944 9.81990117 0 0 Z " fill="#1E3C6C" transform="translate(161,260)"/>
<path d="M0 0 C1.94629338 -0.01554324 3.89248675 -0.04233037 5.83865356 -0.06942749 C17.37825366 -0.06113701 27.44189174 2.54029555 38.18606567 6.54653931 C39.39323242 6.99235352 39.39323242 6.99235352 40.62478638 7.44717407 C47.69715658 10.13373111 54.23723873 13.45053111 60.74856567 17.29653931 C57.56052181 20.52422137 54.31641783 23.64615144 50.93606567 26.67153931 C50.0723938 27.44497681 49.20872192 28.21841431 48.31887817 29.01528931 C45.37659566 31.62667683 42.41632615 34.21626198 39.43997192 36.78872681 C37.81431228 38.23792917 36.27180706 39.74069031 34.74856567 41.29653931 C37.71856567 41.79153931 37.71856567 41.79153931 40.74856567 42.29653931 C40.74856567 42.62653931 40.74856567 42.95653931 40.74856567 43.29653931 C39.76758911 43.29525024 38.78661255 43.29396118 37.77590942 43.29263306 C32.1777265 44.09237347 28.99663258 48.41045848 25.31106567 52.35903931 C24.57952271 53.11765259 23.84797974 53.87626587 23.0942688 54.65786743 C21.29801148 56.52456621 19.51727857 58.40378432 17.74856567 60.29653931 C17.74856567 57.29653931 17.74856567 57.29653931 18.94192505 55.76260376 C19.48655396 55.2336853 20.03118286 54.70476685 20.59231567 54.15982056 C21.17883911 53.58296509 21.76536255 53.00610962 22.36965942 52.41177368 C22.98969849 51.81687134 23.60973755 51.22196899 24.24856567 50.60903931 C24.86860474 50.0025354 25.4886438 49.39603149 26.12747192 48.77114868 C27.66121275 47.27280188 29.20404766 45.78377438 30.74856567 44.29653931 C24.53117621 44.16675285 18.74687491 44.56540222 12.62356567 45.60903931 C11.79590698 45.74656616 10.96824829 45.88409302 10.11550903 46.02578735 C7.6580919 46.4397354 5.20324633 46.86670154 2.74856567 47.29653931 C1.47368286 47.51310181 0.19880005 47.72966431 -1.11471558 47.95278931 C-15.81957447 50.65269782 -30.19750072 54.9368928 -43.78414917 61.19985962 C-47.73719123 62.95960727 -50.14886632 63.85025051 -54.25143433 62.29653931 C-56.79181602 60.98915819 -59.26864822 59.6419909 -61.75143433 58.23403931 C-71.51240516 52.8572795 -81.77493103 49.03451125 -92.25143433 45.29653931 C-92.80261564 39.48578041 -90.91092896 35.33745569 -88.56393433 30.17153931 C-88.22426636 29.37360962 -87.88459839 28.57567993 -87.53463745 27.75357056 C-84.57215441 21.11982349 -81.40602853 18.10073136 -74.66159058 15.29653931 C-72.88336601 14.61841412 -71.10054721 13.95224564 -69.31393433 13.29653931 C-68.37533569 12.94696167 -67.43673706 12.59738403 -66.46969604 12.23721313 C-54.28886709 7.76157842 -42.04918494 4.52395419 -29.25143433 2.29653931 C-28.11319214 2.08900024 -26.97494995 1.88146118 -25.80221558 1.66763306 C-17.21302316 0.33979034 -8.68230963 0.06902304 0 0 Z " fill="#FCFCFD" transform="translate(240.25143432617188,35.703460693359375)"/>
<path d="M0 0 C2.31425432 0.69097022 4.59194601 1.42321222 6.859375 2.25390625 C6.38338381 5.98332179 5.81210171 9.6233192 4.95703125 13.28515625 C4.61161358 14.77465485 4.26658133 16.26424287 3.921875 17.75390625 C3.64041626 18.96820313 3.64041626 18.96820313 3.35327148 20.20703125 C2.33689303 24.91653388 1.7341089 29.40169086 1.609375 34.22265625 C1.16933707 50.3904594 1.16933707 50.3904594 -2.80078125 54.83984375 C-5.48282493 57.27714282 -8.41542197 59.2639879 -11.48486328 61.18017578 C-13.90063843 62.74676073 -15.96253814 64.61978473 -18.078125 66.56640625 C-18.8721875 67.29085937 -19.66625 68.0153125 -20.484375 68.76171875 C-29.54396254 77.26174353 -38.03758331 85.88432949 -45.54296875 95.8046875 C-45.95853027 96.34391846 -46.3740918 96.88314941 -46.80224609 97.4387207 C-47.78582718 98.77270928 -48.71370023 100.14822782 -49.60791016 101.54370117 C-54.26230646 108.38868861 -58.72640723 110.13125264 -66.640625 111.94140625 C-68.77758546 112.49274856 -70.91301641 113.05005318 -73.046875 113.61328125 C-74.08328125 113.88205078 -75.1196875 114.15082031 -76.1875 114.42773438 C-82.38054861 116.16031345 -88.25620375 118.67947195 -94.140625 121.25390625 C-94.55950053 113.96236927 -93.59122135 108.10815196 -91.140625 101.25390625 C-90.82520752 100.34600342 -90.50979004 99.43810059 -90.18481445 98.50268555 C-76.63100166 60.30618241 -53.29763284 26.16500936 -21.140625 1.25390625 C-20.51414062 0.67511719 -19.88765625 0.09632812 -19.2421875 -0.5 C-13.99289098 -3.6125011 -5.66212538 -1.3451069 0 0 Z " fill="#FCFCFD" transform="translate(139.140625,77.74609375)"/>
<path d="M0 0 C5.72016098 1.18666694 8.82810136 3.11866673 12.6875 7.5625 C13.19587402 8.13258789 13.70424805 8.70267578 14.22802734 9.29003906 C42.73739287 42.01489946 60.95081207 84.73435338 63.79882812 128.02758789 C63.93574628 130.05062006 64.10627875 132.07159467 64.30639648 134.08935547 C64.72381972 138.42594118 64.6741255 140.98659909 62.21484375 144.68359375 C60.23523808 146.92156066 58.21538453 148.99725282 56 151 C50.80444379 149.2158656 46.58950288 146.13698145 42.16455078 142.97338867 C38.79768004 140.63282461 35.81461637 138.79861394 31.859375 137.65234375 C27.40517982 136.25120571 23.81644687 134.8834708 21 131 C18.22900548 123.02052588 17.62634005 114.39163636 16.727005 106.03059387 C16.02499874 99.67585817 14.7727128 93.56231099 13.1875 87.375 C12.94201416 86.41650146 12.69652832 85.45800293 12.44360352 84.47045898 C9.53093303 73.63199073 5.77935564 62.76619896 0.86157227 52.66064453 C-1.54026741 47.69715794 -2.41647189 44.37112456 -1.8125 38.75 C-1.67984148 37.29863019 -1.55270952 35.84674962 -1.4296875 34.39453125 C-1.35717773 33.57033691 -1.28466797 32.74614258 -1.20996094 31.89697266 C-0.76470932 25.75353574 -0.63024852 19.59309584 -0.4375 13.4375 C-0.3528876 10.87369716 -0.26825394 8.30989502 -0.18359375 5.74609375 C-0.12210495 3.83073848 -0.06079012 1.91537757 0 0 Z " fill="#CACACA" transform="translate(387,97)"/>
<path d="M0 0 C3.21618882 1.57219945 5.67586587 3.25651124 8 6 C10.64980777 16.2140846 6.31589003 28.93181921 4 39 C3.58427734 40.86785156 3.58427734 40.86785156 3.16015625 42.7734375 C-5.15385027 76.87235824 -22.50131466 106.78048912 -45.9375 132.625 C-46.64724976 133.40786377 -46.64724976 133.40786377 -47.37133789 134.20654297 C-50.75525284 137.87762642 -50.75525284 137.87762642 -53 139 C-54.17322847 135.06442471 -55.33745371 131.12624273 -56.5 127.1875 C-56.83386719 126.06794922 -57.16773438 124.94839844 -57.51171875 123.79492188 C-57.82753906 122.72177734 -58.14335937 121.64863281 -58.46875 120.54296875 C-58.76201172 119.55321045 -59.05527344 118.56345215 -59.35742188 117.54370117 C-60 115 -60 115 -60 112 C-60.66 112 -61.32 112 -62 112 C-61 109 -61 109 -59.640625 107.25390625 C-55.72408389 101.87332478 -53.52904136 95.12831336 -51 89 C-50.70013184 88.28392578 -50.40026367 87.56785156 -50.09130859 86.83007812 C-43.3967756 70.63421834 -39.19321505 53.40171895 -37.1953125 36 C-36.21674708 29.47262983 -36.21674708 29.47262983 -33.41796875 26.9296875 C-32.35191406 26.25164062 -31.28585937 25.57359375 -30.1875 24.875 C-29.00534338 24.07525226 -27.82572695 23.27173921 -26.6484375 22.46484375 C-26.04354492 22.06507324 -25.43865234 21.66530273 -24.81542969 21.25341797 C-21.81299043 19.18045897 -19.07314966 16.81798245 -16.3125 14.4375 C-15.77882813 13.9825415 -15.24515625 13.52758301 -14.6953125 13.05883789 C-9.71452849 8.79755132 -4.83780751 4.42282628 0 0 Z " fill="#C9C9CA" transform="translate(442,249)"/>
<path d="M0 0 C7.92178913 2.52649653 15.52118077 5.63259083 23.1796875 8.859375 C24.11554688 9.24867188 25.05140625 9.63796875 26.015625 10.0390625 C26.85383789 10.39178223 27.69205078 10.74450195 28.55566406 11.10791016 C31.01067354 12.07783507 31.01067354 12.07783507 33.73901367 12.52416992 C36 13 36 13 37.16015625 14.57421875 C37.45792969 15.27160156 37.75570312 15.96898437 38.0625 16.6875 C41.79948088 24.05635917 47.51821637 29.89588827 53 36 C53.76570313 36.86044922 53.76570313 36.86044922 54.546875 37.73828125 C66.24533235 51.11575236 66.24533235 51.11575236 80.43359375 61.55859375 C91.98668632 68.4197823 91.98668632 68.4197823 93.83886719 74.96386719 C94.75128504 81.9125955 94.49637929 88.81946731 94.12841797 95.80175781 C93.95455279 100.13186012 94.20858381 104.37364373 94.5625 108.6875 C94.64628906 109.92886719 94.73007813 111.17023438 94.81640625 112.44921875 C94.87699219 113.29097656 94.93757813 114.13273437 95 115 C58.21574986 101.7795898 26.40876151 59.80906171 10.12890625 26.1875 C6.10485632 17.59553245 2.51500639 9.16400083 0 0 Z " fill="#FCFCFD" transform="translate(49,305)"/>
<path d="M0 0 C8.56951315 3.53564345 17.3361807 5.98036997 26.3125 8.25 C27.0535498 8.43836426 27.79459961 8.62672852 28.55810547 8.82080078 C33.45696648 10.05279157 38.3586591 11.25849031 43.3125 12.25 C44.15949463 12.42660156 45.00648926 12.60320312 45.87915039 12.78515625 C57.19939463 14.84899072 68.65386364 14.70582739 80.125 14.875 C82.28191545 14.9132587 84.43881691 14.95231476 86.59570312 14.9921875 C91.8345096 15.08731845 97.07340304 15.17260507 102.3125 15.25 C102.3125 15.58 102.3125 15.91 102.3125 16.25 C91.7525 16.25 81.1925 16.25 70.3125 16.25 C71.9625 17.9 73.6125 19.55 75.3125 21.25 C76.17294922 22.14525391 76.17294922 22.14525391 77.05078125 23.05859375 C80.70175409 26.83639939 84.48800526 29.9958433 88.80859375 32.98828125 C89.30488281 33.40464844 89.80117188 33.82101562 90.3125 34.25 C90.3125 34.91 90.3125 35.57 90.3125 36.25 C87.91828501 36.73867803 85.52258842 37.21587922 83.125 37.6875 C82.47080078 37.82220703 81.81660156 37.95691406 81.14257812 38.09570312 C37.11592537 46.65064513 -13.05910555 37.81166414 -51.6875 15.25 C-51.6875 14.59 -51.6875 13.93 -51.6875 13.25 C-50.90213867 12.94819824 -50.11677734 12.64639648 -49.30761719 12.33544922 C-46.33115011 11.18833298 -43.35684058 10.03581964 -40.38378906 8.87988281 C-39.10855795 8.38527486 -37.8325415 7.89268589 -36.55566406 7.40234375 C-28.85379715 4.44288623 -21.49165465 1.28606195 -14.28222656 -2.74169922 C-9.14848374 -4.73665197 -4.80679499 -2.05174527 0 0 Z " fill="#C8C8C9" transform="translate(197.6875,406.75)"/>
<path d="M0 0 C7.48170222 -0.32306185 14.26564726 0.57825646 21.5625 2.1875 C22.6146167 2.41526123 23.6667334 2.64302246 24.75073242 2.87768555 C60.83241022 10.85763121 93.81498546 27.29115727 121.125 52.375 C121.66954834 52.87483398 122.21409668 53.37466797 122.77514648 53.88964844 C125.47885215 56.42034086 127.90022823 58.94447005 130 62 C128.02 61.34 126.04 60.68 124 60 C124.01047363 60.79994385 124.02094727 61.5998877 124.03173828 62.42407227 C124.36544757 91.77148087 124.36544757 91.77148087 122 104 C118.72103869 101.24199516 117.04041358 97.58904258 115.0625 93.875 C107.94617848 80.91153821 99.3253604 68.86615049 89.49609375 57.81640625 C87.97522382 56.10036991 86.49585872 54.34471986 85.09765625 52.52734375 C79.81091729 46.15317927 73.50360538 45.24558142 65.6171875 44.31494141 C63.59831538 44.07199877 61.58324927 43.79729008 59.5703125 43.50927734 C49.03723977 42.05467261 38.62354561 41.58144947 28 41.375 C26.33852442 41.33667824 24.67706567 41.29761921 23.015625 41.2578125 C19.01055877 41.16341786 15.00540113 41.07885153 11 41 C18.6014229 31.81956189 27.28350185 23.91366214 37 17 C26.71676125 8.61637432 12.4594306 4.89624806 0 1 C0 0.67 0 0.34 0 0 Z " fill="#1F3D6D" transform="translate(263,37)"/>
<path d="M0 0 C-11.04723811 12.72378373 -22.71718959 24.71701748 -36.296875 34.74121094 C-37.96034931 35.97069396 -39.60527552 37.22216212 -41.25 38.4765625 C-59.53435012 52.19390277 -98.95407704 78.81275569 -123.265625 75.7109375 C-125.75849427 74.68908568 -126.70260056 73.32166215 -128 71 C-126.57415125 66.72245374 -123.34724105 65.0900452 -119.8125 62.5625 C-109.40584393 54.93646146 -99.75661402 46.58648491 -90.25 37.875 C-89.70384033 37.37919434 -89.15768066 36.88338867 -88.5949707 36.37255859 C-86.10959862 34.08572995 -83.86723905 31.84014498 -81.703125 29.234375 C-74.54451769 20.75574081 -65.89108469 19.04156579 -55.48388672 16.59082031 C-52.23300983 15.81756279 -49.02408936 14.92187979 -45.8125 14 C-44.72066406 13.68675781 -43.62882812 13.37351562 -42.50390625 13.05078125 C-31.04143184 9.6133168 -19.79418818 5.70868933 -8.74902344 1.09643555 C-3.32256865 -1.10752288 -3.32256865 -1.10752288 0 0 Z " fill="#FCFDFD" transform="translate(356,309)"/>
<path d="M0 0 C-0.58265625 0.88816406 -1.1653125 1.77632812 -1.765625 2.69140625 C-11.69467792 18.06264026 -20.21129061 34.19482394 -27.3125 51.0625 C-27.70381104 51.97209473 -28.09512207 52.88168945 -28.49829102 53.81884766 C-30.46276367 58.65552424 -31.59072607 61.84362099 -30 67 C-29.7939917 67.70455322 -29.5879834 68.40910645 -29.37573242 69.13500977 C-23.21506097 89.67543274 -14.42420472 107.70807142 -3.17993164 125.92553711 C-2 128 -2 128 -1 131 C-5.42268545 130.41471751 -9.10950065 129.29088994 -13.203125 127.53125 C-14.3478125 127.04269531 -15.4925 126.55414063 -16.671875 126.05078125 C-17.85265625 125.53902344 -19.0334375 125.02726562 -20.25 124.5 C-21.44625 123.98824219 -22.6425 123.47648437 -23.875 122.94921875 C-34.91009276 118.21810998 -34.91009276 118.21810998 -35.73022461 116.22851562 C-35.95202393 115.46216797 -36.17382324 114.69582031 -36.40234375 113.90625 C-36.65153564 113.049104 -36.90072754 112.19195801 -37.1574707 111.30883789 C-37.41488037 110.38192139 -37.67229004 109.45500488 -37.9375 108.5 C-38.20328857 107.55181396 -38.46907715 106.60362793 -38.74291992 105.62670898 C-44.41227325 84.89123607 -45.35634249 64.41087656 -45 43 C-44.98743164 42.2059375 -44.97486328 41.411875 -44.96191406 40.59375 C-44.71964503 29.36037773 -42.73658772 18.88270929 -40 8 C-39.01 9.485 -39.01 9.485 -38 11 C-37.15179688 10.61328125 -36.30359375 10.2265625 -35.4296875 9.828125 C-27.09726386 6.12889517 -18.84458267 3.29344638 -10 1 C-9.14664063 0.76152344 -8.29328125 0.52304688 -7.4140625 0.27734375 C-2.25671729 -1.12835864 -2.25671729 -1.12835864 0 0 Z " fill="#1F3D6C" transform="translate(84,187)"/>
<path d="M0 0 C2.33065619 -0.4284653 3.57567589 -0.37761062 5.8046875 0.46923828 C8.77064117 3.33083433 11.13519894 6.55928401 13.57763672 9.86962891 C15.62687703 12.54106196 17.89272183 15.00119085 20.1796875 17.46923828 C20.6329541 17.96246582 21.0862207 18.45569336 21.55322266 18.96386719 C25.81324793 23.5595399 30.27675899 27.93878979 34.78515625 32.28955078 C36.8046875 34.46923828 36.8046875 34.46923828 36.8046875 36.46923828 C29.41404422 36.66896141 22.4526904 36.22047527 15.1796875 34.90673828 C14.20112793 34.73182861 13.22256836 34.55691895 12.21435547 34.37670898 C-3.58103366 31.40709574 -19.38785197 27.34793447 -33.98388672 20.51489258 C-37.877458 18.74072832 -40.13291403 17.99654083 -44.1953125 19.46923828 C-46.88210718 20.64007887 -49.50660797 21.91903137 -52.1328125 23.21923828 C-58.75902995 26.42920543 -65.35346104 29.11898094 -72.33984375 31.46142578 C-75.13545146 32.37535764 -75.13545146 32.37535764 -77.39453125 33.60205078 C-79.1953125 34.46923828 -79.1953125 34.46923828 -82.1953125 34.46923828 C-82.5253125 35.12923828 -82.8553125 35.78923828 -83.1953125 36.46923828 C-85.97927785 33.68527293 -85.65324706 30.96010828 -85.8203125 27.21923828 C-85.85825928 26.51283203 -85.89620605 25.80642578 -85.93530273 25.07861328 C-86.27344372 18.20844732 -86.29202691 11.34670724 -86.1953125 4.46923828 C-83.86236475 4.42682105 -81.52828683 4.42830891 -79.1953125 4.46923828 C-77.45925737 6.20529341 -77.53919268 8.67473324 -77.1328125 11.03173828 C-76.86791016 12.54960937 -76.86791016 12.54960937 -76.59765625 14.09814453 C-76.46488281 14.88060547 -76.33210937 15.66306641 -76.1953125 16.46923828 C-76.13472656 15.75896484 -76.07414063 15.04869141 -76.01171875 14.31689453 C-75.92792969 13.39779297 -75.84414062 12.47869141 -75.7578125 11.53173828 C-75.67660156 10.61521484 -75.59539062 9.69869141 -75.51171875 8.75439453 C-75.1953125 6.46923828 -75.1953125 6.46923828 -74.1953125 5.46923828 C-71.74834268 5.41742822 -69.32837559 5.42744469 -66.8828125 5.47705078 C-65.32789358 5.4971058 -63.77296078 5.51610509 -62.21801758 5.53417969 C-61.39782135 5.5445929 -60.57762512 5.5550061 -59.73257446 5.56573486 C-39.37919161 5.7943833 -19.94506849 4.26316967 0 0 Z " fill="#193157" transform="translate(228.1953125,385.53076171875)"/>
<path d="M0 0 C0.66 0 1.32 0 2 0 C3.17816469 3.72563248 4.34048913 7.45602389 5.5 11.1875 C5.83386719 12.24259766 6.16773438 13.29769531 6.51171875 14.38476562 C6.82753906 15.40634766 7.14335937 16.42792969 7.46875 17.48046875 C7.76201172 18.41785889 8.05527344 19.35524902 8.35742188 20.32104492 C9.00883674 23.036841 9.27019677 25.22167237 9 28 C-1.67878845 40.80241116 -17.77056637 50.84700873 -32.16748047 58.96630859 C-33.37380875 59.64677674 -34.57611139 60.33443956 -35.77392578 61.02978516 C-53.02270678 71.02900918 -71.82794005 76.87191102 -91 82 C-91.495 81.01 -91.495 81.01 -92 80 C-92.556875 79.74089844 -93.11375 79.48179687 -93.6875 79.21484375 C-96.9222697 77.51549683 -99.37133092 75.05778365 -102 72.5625 C-106.03284864 68.73875536 -106.03284864 68.73875536 -110.375 65.27734375 C-110.91125 64.85582031 -111.4475 64.43429687 -112 64 C-112 63.34 -112 62.68 -112 62 C-111.17201904 61.9906543 -110.34403809 61.98130859 -109.4909668 61.97167969 C-94.55001815 61.76157742 -79.79995756 61.33633293 -65 59.125 C-63.90518311 58.96354492 -62.81036621 58.80208984 -61.68237305 58.63574219 C-52.7485271 57.1955886 -45.89731711 55.4564394 -39.1875 49 C-38.68105957 48.5157959 -38.17461914 48.0315918 -37.65283203 47.53271484 C-36.60498339 46.52590721 -35.56264147 45.51333709 -34.52587891 44.49511719 C-33.0785028 43.07692019 -31.60819032 41.68224295 -30.13671875 40.2890625 C-18.56879038 29.13018393 -9.22095761 16.0992625 -1.37109375 2.09375 C-0.91863281 1.4028125 -0.46617187 0.711875 0 0 Z " fill="#183057" transform="translate(380,361)"/>
<path d="M0 0 C2.29331444 2.79218996 3.54933985 5.12643456 4.5 8.60546875 C4.86895386 9.94532837 4.86895386 9.94532837 5.24536133 11.31225586 C5.49439209 12.26108643 5.74342285 13.20991699 6 14.1875 C6.26127686 15.16404541 6.52255371 16.14059082 6.79174805 17.14672852 C9.02687407 25.69878794 10.69219615 34.25935412 12 43 C12.18820312 44.19882813 12.37640625 45.39765625 12.5703125 46.6328125 C12.95155839 49.62039395 13.10368281 52.43115505 13.0625 55.4375 C13.05347656 56.30246094 13.04445313 57.16742188 13.03515625 58.05859375 C13.02355469 58.69925781 13.01195312 59.33992188 13 60 C11.07629937 56.55152529 10.10182142 53.06547132 9.08984375 49.2578125 C8.91747696 48.61182098 8.74511017 47.96582947 8.56752014 47.30026245 C8.20495198 45.93754558 7.84451525 44.57426004 7.48608398 43.21044922 C6.94079355 41.13752046 6.38794008 39.06672162 5.83398438 36.99609375 C4.33696535 31.35336909 2.87737504 25.77977003 2 20 C1.65743164 20.8971875 1.31486328 21.794375 0.96191406 22.71875 C-0.32368731 26.08247638 -1.61468351 29.44411139 -2.90722656 32.80517578 C-3.46336253 34.25351366 -4.01808067 35.70239685 -4.57128906 37.15185547 C-10.22953899 51.97156783 -10.22953899 51.97156783 -14 59 C-15.60588043 58.58998798 -17.20958736 58.17146514 -18.8125 57.75 C-19.70582031 57.51796875 -20.59914063 57.2859375 -21.51953125 57.046875 C-24.42466859 56.17305142 -27.20647251 55.18794962 -30.04296875 54.12109375 C-36.42457429 51.77028937 -42.92378411 50.02754721 -49.5 48.3125 C-51.80226107 47.70510037 -54.10435281 47.09705846 -56.40625 46.48828125 C-57.40978516 46.22571533 -58.41332031 45.96314941 -59.44726562 45.69262695 C-61.31474063 45.18592969 -63.16430272 44.61189909 -65 44 C-64.59386475 44.59611084 -64.18772949 45.19222168 -63.76928711 45.80639648 C-55.73729773 57.63205149 -47.8843673 69.54698414 -40.4375 81.75 C-39.7767749 82.81404053 -39.1160498 83.87808105 -38.43530273 84.97436523 C-37.83661377 85.96766846 -37.2379248 86.96097168 -36.62109375 87.984375 C-36.0892749 88.85803711 -35.55745605 89.73169922 -35.00952148 90.63183594 C-34 93 -34 93 -34.22412109 95.11206055 C-35.53316011 98.2973339 -37.35427113 101.16066068 -39.1875 104.0625 C-39.61949707 104.75061768 -40.05149414 105.43873535 -40.49658203 106.14770508 C-47.33771628 116.85624268 -54.98121791 127.14440329 -63 137 C-59.04122194 135.89742376 -55.08306187 134.79264424 -51.125 133.6875 C-50.01640625 133.37876953 -48.9078125 133.07003906 -47.765625 132.75195312 C-46.66992188 132.44580078 -45.57421875 132.13964844 -44.4453125 131.82421875 C-43.36024414 131.52177246 -42.27517578 131.21932617 -41.15722656 130.90771484 C-37.41649885 129.83224116 -33.71360805 128.6531783 -30.01904297 127.42895508 C-28 127 -28 127 -25 128 C-37.84323219 133.96334012 -50.83095917 139.18958594 -64.25 143.6875 C-64.9139679 143.91322693 -65.57793579 144.13895386 -66.26202393 144.371521 C-68.1554467 145.01235645 -70.05419768 145.63738315 -71.953125 146.26171875 C-73.04786133 146.62225342 -74.14259766 146.98278809 -75.27050781 147.35424805 C-78 148 -78 148 -81 147 C-80.50443604 146.45690186 -80.00887207 145.91380371 -79.49829102 145.35424805 C-74.69515602 140.03003704 -70.21536256 134.56526567 -65.9375 128.8125 C-65.3084375 127.96679443 -64.679375 127.12108887 -64.03125 126.24975586 C-59.10572887 119.57896654 -54.25603943 112.85514204 -49.5 106.0625 C-48.83476318 105.13348877 -48.16952637 104.20447754 -47.48413086 103.24731445 C-46.88093018 102.37292725 -46.27772949 101.49854004 -45.65625 100.59765625 C-44.84897461 99.44535522 -44.84897461 99.44535522 -44.02539062 98.26977539 C-42.71186096 95.36218365 -43.02750365 94.00085444 -44 91 C-44.87016893 89.09169783 -44.87016893 89.09169783 -46.01171875 87.3125 C-46.64315796 86.28044434 -46.64315796 86.28044434 -47.28735352 85.22753906 C-47.74940186 84.49245117 -48.2114502 83.75736328 -48.6875 83 C-49.17081787 82.22108398 -49.65413574 81.44216797 -50.15209961 80.63964844 C-58.64426826 67.05970211 -67.57525502 53.75393597 -77.01171875 40.8125 C-78.81091467 38.26746844 -80.41359598 35.68013598 -82 33 C-73.14984819 34.20786857 -64.57351239 35.91366641 -55.9375 38.1875 C-54.19509033 38.64116943 -54.19509033 38.64116943 -52.41748047 39.10400391 C-43.41016476 41.50339739 -34.65127003 44.38087084 -25.9140625 47.6171875 C-22.96705851 48.69910512 -20.11361353 49.51621144 -17 50 C-16.60683594 48.78699219 -16.21367187 47.57398438 -15.80859375 46.32421875 C-14.12542419 41.27273568 -12.2595106 36.29771358 -10.38232422 31.31567383 C-6.48844554 20.98025668 -2.6587391 10.73416308 0 0 Z " fill="#5E92D0" transform="translate(387,169)"/>
<path d="M0 0 C6.2954642 1.21796669 9.13934013 3.56510417 13.25 8.375 C13.765625 8.9525 14.28125 9.53 14.8125 10.125 C15.80368876 11.24391927 16.78245327 12.37400103 17.74682617 13.51611328 C18.71893735 14.66719291 19.72923213 15.7860765 20.75390625 16.890625 C33.81022889 38.99223699 25.42833857 85.51320263 20 109 C19.34 109 18.68 109 18 109 C17.79955078 108.11030518 17.59910156 107.22061035 17.39257812 106.30395508 C11.21434041 78.83081125 11.21434041 78.83081125 0.87036133 52.70019531 C-1.53429353 47.72577261 -2.4174423 44.38015605 -1.8125 38.75 C-1.67984148 37.29863019 -1.55270952 35.84674962 -1.4296875 34.39453125 C-1.35717773 33.57033691 -1.28466797 32.74614258 -1.20996094 31.89697266 C-0.76470932 25.75353574 -0.63024852 19.59309584 -0.4375 13.4375 C-0.3528876 10.87369716 -0.26825394 8.30989502 -0.18359375 5.74609375 C-0.12210495 3.83073848 -0.06079012 1.91537757 0 0 Z " fill="#FCFDFD" transform="translate(387,97)"/>
<path d="M0 0 C-0.95531616 0.33040283 -0.95531616 0.33040283 -1.92993164 0.66748047 C-21.61071108 7.51342807 -41.0360503 14.91118408 -59.35546875 24.91796875 C-62.36664307 26.15001496 -63.01916952 26.00397361 -66 25 C-67.34861765 24.32974818 -68.67377941 23.61095752 -69.9765625 22.85546875 C-70.72566895 22.42733887 -71.47477539 21.99920898 -72.24658203 21.55810547 C-73.42389893 20.87965576 -73.42389893 20.87965576 -74.625 20.1875 C-80.91836246 16.61641212 -87.11762911 13.31718015 -94 11 C-96.28882042 17.25610916 -97.10263494 22.75845761 -96.859375 29.36328125 C-96.45439142 44.47005192 -96.45439142 44.47005192 -99.15771484 48.89501953 C-102.08545596 51.95902651 -105.60920589 53.97249776 -109.30175781 55.99365234 C-111.94636494 57.56079878 -114.07903862 59.58971618 -116.3125 61.6875 C-119.92954481 65.01588814 -123.58977043 68.27800618 -127.30859375 71.4921875 C-128.92744226 72.93531804 -130.46649157 74.46649157 -132 76 C-120.12 75.67 -108.24 75.34 -96 75 C-95.28535513 82.58034025 -94.57239995 90.16079991 -93.86376953 97.74169922 C-93.62225402 100.31991786 -93.37974923 102.89804402 -93.13623047 105.47607422 C-92.78612533 109.18433068 -92.43959372 112.89290648 -92.09375 116.6015625 C-91.9843811 117.75177887 -91.87501221 118.90199524 -91.7623291 120.08706665 C-91.61217346 121.70806778 -91.61217346 121.70806778 -91.45898438 123.36181641 C-91.37015991 124.30779694 -91.28133545 125.25377747 -91.18981934 126.22842407 C-90.98900318 129.16056594 -90.96816622 132.06191147 -91 135 C-93.66193546 132.33806454 -93.8302892 130.18316694 -94.65625 126.515625 C-94.80404907 125.86358093 -94.95184814 125.21153687 -95.10412598 124.53973389 C-95.4168875 123.15179783 -95.72599096 121.76303321 -96.03173828 120.37353516 C-96.48951758 118.29753708 -96.96050502 116.22489933 -97.43359375 114.15234375 C-99.81415432 103.58409757 -102.20414404 92.88087748 -102 82 C-103.17506104 82.09087891 -104.35012207 82.18175781 -105.56079102 82.27539062 C-109.94209764 82.61352852 -114.32366709 82.94815003 -118.70532227 83.28173828 C-120.59764782 83.4262943 -122.48990188 83.57178953 -124.38208008 83.71826172 C-127.11000369 83.92926134 -129.83817098 84.13682392 -132.56640625 84.34375 C-133.40522842 84.40937134 -134.2440506 84.47499268 -135.10829163 84.54260254 C-139.75520915 84.8913516 -144.34002147 85.06567204 -149 85 C-144.20566744 78.03804348 -138.48390135 72.12860493 -132.5 66.1875 C-132.01599731 65.70432312 -131.53199463 65.22114624 -131.0333252 64.72332764 C-110.22835891 44 -110.22835891 44 -105 44 C-105.04640625 42.88367188 -105.0928125 41.76734375 -105.140625 40.6171875 C-105.48528419 28.21348003 -105.67348326 12.34696652 -100 1 C-95.10488094 1.68122929 -90.90572142 3.61879292 -86.4375 5.625 C-85.64118164 5.97747803 -84.84486328 6.32995605 -84.02441406 6.69311523 C-78.21247474 9.31693483 -72.88563936 12.30155382 -67.578125 15.84765625 C-62.67072175 18.04111679 -58.59384978 15.89917946 -53.83203125 14.109375 C-51.82461978 13.32521944 -49.81815493 12.53863746 -47.8125 11.75 C-38.00515831 7.97943643 -28.24553151 4.91752232 -18.02880859 2.4921875 C-16.11136063 2.02701601 -14.20547998 1.51489216 -12.30078125 1 C-11.23214844 0.71125 -10.16351563 0.4225 -9.0625 0.125 C-8.16660156 -0.11992188 -7.27070313 -0.36484375 -6.34765625 -0.6171875 C-3.84567641 -1.02516425 -2.40423192 -0.67968406 0 0 Z " fill="#5F93D1" transform="translate(252,90)"/>
<path d="M0 0 C2.46344684 2.26815146 4.10945403 4.61565841 5.8125 7.4921875 C6.58980469 8.79736328 6.58980469 8.79736328 7.3828125 10.12890625 C7.91648437 11.03511719 8.45015625 11.94132813 9 12.875 C9.53367187 13.77347656 10.06734375 14.67195312 10.6171875 15.59765625 C11.61531358 17.27858003 12.61161773 18.96058802 13.60546875 20.64404297 C14.59342692 22.31312496 15.64503594 23.94526755 16.73828125 25.54736328 C18 28 18 28 17.82202148 30.09790039 C16.97977645 32.04679587 16.05539682 33.68764525 14.84765625 35.43359375 C14.40599121 36.07594971 13.96432617 36.71830566 13.50927734 37.38012695 C13.03184082 38.05906006 12.5544043 38.73799316 12.0625 39.4375 C11.56959473 40.14543701 11.07668945 40.85337402 10.56884766 41.58276367 C1.23620749 54.88588226 -8.87358425 67.67772933 -19.87890625 79.63671875 C-21.24660779 81.1605851 -22.57156731 82.72447067 -23.83984375 84.33203125 C-24.40832031 85.04746094 -24.97679687 85.76289063 -25.5625 86.5 C-26.03816406 87.1290625 -26.51382813 87.758125 -27.00390625 88.40625 C-32.74309583 92.98861663 -42.77351032 93.00039198 -49.8125 94.0625 C-50.92431641 94.23587891 -52.03613281 94.40925781 -53.18164062 94.58789062 C-65.51525907 96.4714918 -77.73197732 97.20991732 -90.1875 97.5625 C-91.63086853 97.60581566 -93.07422803 97.64943346 -94.51757812 97.69335938 C-98.01162173 97.79904858 -101.50576898 97.90067582 -105 98 C-106.96650149 94.46281042 -108.92172217 90.91950646 -110.875 87.375 C-111.43058594 86.37597656 -111.98617187 85.37695312 -112.55859375 84.34765625 C-113.09355469 83.37441406 -113.62851563 82.40117187 -114.1796875 81.3984375 C-114.67194824 80.50817871 -115.16420898 79.61791992 -115.67138672 78.70068359 C-117.06914702 75.85944425 -118.06509436 73.02195641 -119 70 C-115.54251949 73.41418469 -112.20656253 76.90251543 -108.9375 80.5 C-108.10089844 81.4178125 -107.26429688 82.335625 -106.40234375 83.28125 C-104 86 -104 86 -102.078125 88.8671875 C-100.16876124 91.29436834 -100.16876124 91.29436834 -97.20703125 91.2265625 C-95.52673828 90.92878906 -95.52673828 90.92878906 -93.8125 90.625 C-93.17304443 90.51776611 -92.53358887 90.41053223 -91.87475586 90.30004883 C-89.5757003 89.90059491 -87.28915648 89.45270632 -85 89 C-84.08927734 88.8261377 -83.17855469 88.65227539 -82.24023438 88.47314453 C-77.01793338 87.47425385 -71.80678949 86.43198089 -66.6015625 85.34765625 C-62.18988878 84.4311235 -57.77326272 83.59122878 -53.3359375 82.80859375 C-51.72513306 82.51045776 -51.72513306 82.51045776 -50.08178711 82.20629883 C-48.04722307 81.83015961 -46.00897769 81.47320984 -43.96704102 81.1394043 C-36.87957412 79.78510734 -32.94587609 77.17655941 -28 72 C-27.36505615 71.36126953 -26.7301123 70.72253906 -26.07592773 70.06445312 C-24.10182222 68.05025288 -22.17128062 66.00209571 -20.25 63.9375 C-19.55898193 63.19870605 -18.86796387 62.45991211 -18.15600586 61.69873047 C-12.37147469 55.47643293 -6.79022628 49.10969278 -1.35498047 42.58154297 C-0.00921689 41.01075802 1.38651059 39.50563005 2.80859375 38.00390625 C3.65550781 37.07449219 4.50242187 36.14507812 5.375 35.1875 C6.12523437 34.39730469 6.87546875 33.60710937 7.6484375 32.79296875 C10.03915559 27.852612 7.84248467 23.4922479 6.16455078 18.52856445 C5.26983436 16.02507438 4.33209141 13.54276737 3.375 11.0625 C2.73411686 9.38781132 2.0959534 7.71207849 1.4609375 6.03515625 C1.04013916 4.94279663 1.04013916 4.94279663 0.61083984 3.82836914 C0 2 0 2 0 0 Z " fill="#C0C0C0" transform="translate(309,233)"/>
<path d="M0 0 C3.27926866 1.63963433 3.90095321 5.2063886 5.1875 8.47265625 C5.49067139 9.22912949 5.79384277 9.98560272 6.10620117 10.76499939 C6.74828521 12.37187253 7.38694133 13.98011894 8.02246094 15.58959961 C8.9877556 18.03152508 9.96560384 20.46812426 10.9453125 22.90429688 C11.56847362 24.46844532 12.19089245 26.03288975 12.8125 27.59765625 C13.10213623 28.31881119 13.39177246 29.03996613 13.69018555 29.78297424 C18.48039778 41.9805122 18.48039778 41.9805122 17.48364258 46.1706543 C16.94453247 46.9891687 16.94453247 46.9891687 16.39453125 47.82421875 C15.79282104 48.7687793 15.79282104 48.7687793 15.17895508 49.73242188 C14.7280249 50.37759766 14.27709473 51.02277344 13.8125 51.6875 C13.35705811 52.37521484 12.90161621 53.06292969 12.43237305 53.77148438 C7.79577014 60.61851481 2.50268532 66.84344621 -3 73 C-4.22967723 74.43706327 -5.45891783 75.87450042 -6.6875 77.3125 C-10.28264136 81.37843369 -13.96228153 85.36950442 -18 89 C-18.53979492 89.49290527 -19.07958984 89.98581055 -19.63574219 90.49365234 C-25.17559521 95.14139898 -30.29565081 96.42896743 -37.375 97.375 C-38.48262695 97.52565918 -39.59025391 97.67631836 -40.73144531 97.83154297 C-44.48393927 98.28940285 -48.23489442 98.66116827 -52 99 C-52.70056519 99.06437256 -53.40113037 99.12874512 -54.1229248 99.19506836 C-83.13184831 101.76578707 -83.13184831 101.76578707 -91.2734375 95.8671875 C-94.8285407 92.62863459 -97.50248128 89.09634869 -100 85 C-99.01 84.505 -99.01 84.505 -98 84 C-96.38842236 84.7741479 -94.78099925 85.55913023 -93.20458984 86.40258789 C-84.87823099 90.81121082 -78.47561256 91.88804345 -69 91 C-67.35035375 90.87635254 -65.70060675 90.75404468 -64.05078125 90.6328125 C-55.5152185 89.95508772 -47.01583584 88.99285067 -38.5625 87.625 C-37.88340576 87.52340576 -37.20431152 87.42181152 -36.50463867 87.31713867 C-29.04526908 86.00641684 -24.1889625 81.52548413 -18.8125 76.5 C-18.25006592 75.97519043 -17.68763184 75.45038086 -17.1081543 74.90966797 C-11.42239289 69.5418735 -6.03473887 63.98843986 -1 58 C-0.27659424 57.14438477 -0.27659424 57.14438477 0.46142578 56.27148438 C1.92890103 54.49947533 3.34482947 52.69667391 4.75 50.875 C5.19303467 50.33762207 5.63606934 49.80024414 6.0925293 49.24658203 C8.47731897 46.02013033 9.28899302 43.50445174 9.01953125 39.6015625 C7.88191607 32.13004518 5.84162733 24.80609818 3.9375 17.5 C3.37137977 15.30577286 2.80733846 13.11103891 2.2457428 10.91564941 C1.74070566 8.94467931 1.22976418 6.97522491 0.71850586 5.00585938 C0 2 0 2 0 0 Z " fill="#9B9B9B" transform="translate(355,316)"/>
<path d="M0 0 C2.17136268 2.73258001 3.76664569 5.37194298 5.19140625 8.5546875 C5.57876953 9.41707031 5.96613281 10.27945312 6.36523438 11.16796875 C6.76033203 12.06128906 7.15542969 12.95460938 7.5625 13.875 C7.96146484 14.76058594 8.36042969 15.64617187 8.77148438 16.55859375 C10.74603665 20.98238198 12.58306282 25.35857336 14 30 C12.33333333 28.33333333 10.66666667 26.66666667 9 25 C8.071875 24.113125 7.14375 23.22625 6.1875 22.3125 C4 20 4 20 4 18 C3.34 18 2.68 18 2 18 C1.78827148 19.96102661 1.78827148 19.96102661 1.57226562 21.96166992 C1.06500462 26.52273243 0.4744125 31.06784225 -0.15625 35.61328125 C-0.31704041 36.77853584 -0.31704041 36.77853584 -0.4810791 37.96733093 C-0.70566864 39.59167051 -0.9308942 41.21592227 -1.15673828 42.84008789 C-1.50151241 45.32339342 -1.84263253 47.80718406 -2.18359375 50.29101562 C-2.40342431 51.87763488 -2.62346877 53.46422451 -2.84375 55.05078125 C-2.94482056 55.78935867 -3.04589111 56.5279361 -3.15002441 57.28889465 C-3.610283 60.57628154 -4.09044809 63.80358953 -5 67 C-8.68759381 66.52155349 -12.37505773 66.04211288 -16.0625 65.5625 C-17.62000977 65.36043945 -17.62000977 65.36043945 -19.20898438 65.15429688 C-24.47775688 64.46852014 -29.74257271 63.7681064 -35 63 C-26.0930742 71.65505901 -16.05434124 78.75573412 -6 86 C-6.64611499 91.18903244 -7.3027936 96.37646662 -7.97265625 101.5625 C-8.1037101 102.57763672 -8.1037101 102.57763672 -8.2374115 103.61328125 C-8.51228995 105.74220704 -8.7873908 107.87110402 -9.0625 110 C-9.25066586 111.45702934 -9.43881703 112.91406057 -9.62695312 114.37109375 C-10.08446593 117.91408441 -10.54217797 121.45704929 -11 125 C-11.33 125 -11.66 125 -12 125 C-12.65789012 119.31739544 -13.06891416 113.78402666 -12.82421875 108.0625 C-12.00558569 96.46339833 -12.00558569 96.46339833 -16.6875 86.421875 C-19.57892364 83.9916652 -22.76280416 82.08639442 -26.03173828 80.20849609 C-29.35110442 78.17043328 -32.20712584 75.62913342 -35.125 73.0625 C-35.69863281 72.5677417 -36.27226563 72.0729834 -36.86328125 71.56323242 C-40.93284094 68.02596101 -44.85301086 64.35278584 -48.6875 60.5625 C-49.42734131 59.8365564 -49.42734131 59.8365564 -50.18212891 59.09594727 C-52.98345713 56.26956331 -55.01550762 53.43181002 -57 50 C-47.01244344 51.5476082 -37.14041416 53.56276116 -27.25 55.625 C-25.66671079 55.95333784 -24.08337772 56.28146427 -22.5 56.609375 C-18.66615772 57.4038186 -14.83291668 58.20110317 -11 59 C-10.94577881 58.45102051 -10.89155762 57.90204102 -10.83569336 57.33642578 C-9.42030244 43.57044899 -7.18292779 30.10246384 -4.375 16.5625 C-4.21716034 15.79609192 -4.05932068 15.02968384 -3.896698 14.24005127 C-1.19752738 1.19752738 -1.19752738 1.19752738 0 0 Z " fill="#5F93D1" transform="translate(163,284)"/>
<path d="M0 0 C3.85035134 3.19497239 7.43581518 6.42889733 10.875 10.0625 C13.83667752 13.12238324 16.90215307 15.71506431 20.35546875 18.1875 C21.12842285 18.7455835 21.90137695 19.30366699 22.69775391 19.87866211 C24.25281666 20.98595798 25.82401499 22.07099447 27.41162109 23.13110352 C32.76379457 26.95126665 32.76379457 26.95126665 33.49169922 30.18310547 C33.49609375 32.40234375 33.49609375 32.40234375 33 36 C35.31 36.33 37.62 36.66 40 37 C40.33747251 40.87465111 40.66924222 44.74977038 41 48.625 C41.09539062 49.71941406 41.19078125 50.81382812 41.2890625 51.94140625 C41.37929687 53.00488281 41.46953125 54.06835938 41.5625 55.1640625 C41.64628906 56.13811035 41.73007813 57.1121582 41.81640625 58.11572266 C42.00542023 61.08515232 42.0308649 64.02539483 42 67 C22.14498283 59.86402549 2.06770634 41.15643693 -11 25 C-7.08343429 23.6944781 -5.75053072 24.63546519 -1.9375 26.125 C6.56524623 29.30351351 15.23425847 31.66445662 24 34 C22.66140062 30.06010182 21.01014051 27.66247089 18.125 24.6875 C13.9492066 20.18526021 10.18620263 15.4728314 6.5 10.5625 C5.97164551 9.86406982 5.44329102 9.16563965 4.89892578 8.44604492 C4.40634277 7.78451416 3.91375977 7.1229834 3.40625 6.44140625 C2.96603516 5.85045166 2.52582031 5.25949707 2.07226562 4.65063477 C1 3 1 3 0 0 Z " fill="#C9C9CA" transform="translate(102,353)"/>
<path d="M0 0 C3.24717312 3.10199573 5.47788643 6.49917643 7.8125 10.3125 C8.24498047 10.94478516 8.67746094 11.57707031 9.12304688 12.22851562 C13.85790154 20.0995422 11.18592616 28.04366805 9.1652832 36.48852539 C8.25473583 39.97133822 7.26996973 43.42272061 6.25 46.875 C5.7230957 48.69112793 5.7230957 48.69112793 5.18554688 50.54394531 C2.53599377 59.53367222 -0.44556452 68.32933162 -4 77 C-9.75502515 75.79120886 -15.36785014 74.34909845 -21.00805664 72.68969727 C-37.47843188 67.86080635 -54.1888855 64.39402729 -71 61 C-71 60.67 -71 60.34 -71 60 C-58.49865729 59.6237054 -46.18962974 60.16281595 -33.75 61.375 C-33.08418915 61.43821442 -32.4183783 61.50142883 -31.73239136 61.56655884 C-24.3490385 62.27676132 -17.19782463 63.19268596 -10 65 C-9.62101562 63.82695312 -9.24203125 62.65390625 -8.8515625 61.4453125 C-7.4366642 57.19729235 -5.90452498 52.99783615 -4.3359375 48.8046875 C-4.09691711 48.16356018 -3.85789673 47.52243286 -3.6116333 46.86187744 C-2.61519292 44.19008962 -1.61815517 41.51860037 -0.61035156 38.85107422 C0.13342598 36.87963298 0.86816352 34.90500927 1.6015625 32.9296875 C2.03807129 31.76679199 2.47458008 30.60389648 2.92431641 29.40576172 C4.46762706 24.51942863 5.738197 19.88591622 4.00390625 14.921875 C3.77509766 14.23609375 3.54628906 13.5503125 3.31054688 12.84375 C2.94026367 11.80734375 2.94026367 11.80734375 2.5625 10.75 C0 3.30039788 0 3.30039788 0 0 Z " fill="#C1C1C1" transform="translate(365,123)"/>
<path d="M0 0 C0.99 0.495 0.99 0.495 2 1 C-0.08119446 2.93984166 -2.16484547 4.87692294 -4.25 6.8125 C-4.83652344 7.35970703 -5.42304688 7.90691406 -6.02734375 8.47070312 C-6.60097656 9.00244141 -7.17460937 9.53417969 -7.765625 10.08203125 C-8.28930664 10.56905518 -8.81298828 11.0560791 -9.35253906 11.55786133 C-12.82256511 14.59541969 -15.1529541 16.32437173 -19.8046875 16.921875 C-20.76568359 17.0564209 -21.72667969 17.1909668 -22.71679688 17.32958984 C-23.75900391 17.4683252 -24.80121094 17.60706055 -25.875 17.75 C-44.06477521 20.42796897 -62.47833528 23.99804148 -79.8125 30.25 C-80.4832959 30.49177979 -81.1540918 30.73355957 -81.84521484 30.98266602 C-84.47237546 31.95943086 -86.99682666 32.99836102 -89.48828125 34.28515625 C-91.88577094 35.43787981 -93.3279976 35.99115231 -96 36 C-100.61043105 34.35637099 -104.83014684 32.20358418 -109.15185547 29.92480469 C-113.26278187 27.86771232 -117.64833938 26.45658495 -122 25 C-122 24.67 -122 24.34 -122 24 C-116.58441647 23.75383711 -111.66889309 24.50714399 -106.35546875 25.5625 C-97.53979187 26.71192469 -91.1337681 25.75042539 -82.9375 22.375 C-64.76483225 15.38920771 -46.57825649 11.9555016 -27.29541016 9.68969727 C-18.19384883 8.48789572 -10.8641257 5.99934942 -2.89453125 1.51171875 C-1.93933594 1.01285156 -0.98414063 0.51398437 0 0 Z " fill="#C2C2C2" transform="translate(285,55)"/>
<path d="M0 0 C1.41964851 4.25894554 -0.21177276 7.39403004 -1.5625 11.5 C-7.24960777 29.59168157 -10.99139322 48.2885771 -14 67 C-31.04422473 64.81363738 -47.66333084 60.20697779 -64 55 C-64 54.67 -64 54.34 -64 54 C-50.8 53.67 -37.6 53.34 -24 53 C-23.05125 50.133125 -22.1025 47.26625 -21.125 44.3125 C-15.80049957 28.79195549 -8.70141975 13.91650906 0 0 Z " fill="#C1C1C1" transform="translate(153,258)"/>
<path d="M0 0 C0.33 0 0.66 0 1 0 C-0.2361197 26.9474094 -9.41801878 53.37396981 -22 77 C-22.31163086 77.59522461 -22.62326172 78.19044922 -22.94433594 78.80371094 C-29.2844511 90.83315695 -37.11467519 102.58454438 -47 112 C-45.70286265 107.75967565 -44.07887365 104.06670095 -41.91015625 100.203125 C-41.2958374 99.09227539 -40.68151855 97.98142578 -40.04858398 96.83691406 C-39.72445526 96.25268677 -39.40032654 95.66845947 -39.06637573 95.06652832 C-31.35326954 81.10954601 -24.86014248 66.83947661 -19 52 C-18.67676758 51.19046875 -18.35353516 50.3809375 -18.02050781 49.546875 C-15.38228524 42.90633238 -13.02599778 36.28970405 -11.1875 29.375 C-8.44185754 19.24086904 -4.09417224 9.64830218 0 0 Z " fill="#9B9B9B" transform="translate(442,259)"/>
<path d="M0 0 C1.40208576 2.80417153 0.5706543 4.1078886 -0.25 7.125 C-1.43896866 11.74190427 -2.11985674 16.01315256 -2.37890625 20.77734375 C-3.50529503 38.84779745 -3.50529503 38.84779745 -9.55322266 44.3425293 C-11.99759426 46.23100454 -14.5062148 47.98277249 -17.08935547 49.67578125 C-20.30572262 51.90496288 -23.09843204 54.56703915 -25.9375 57.25 C-26.4830957 57.75700439 -27.02869141 58.26400879 -27.59082031 58.78637695 C-31.70594484 62.63717509 -35.41694808 66.6601828 -39 71 C-39.89416151 72.04570269 -40.79015772 73.08983802 -41.6875 74.1328125 C-46.36999768 79.59011195 -50.97386499 85.03021361 -55 91 C-55 86.9400681 -53.15142803 84.24405509 -51.1875 80.8125 C-50.58615234 79.75542847 -50.58615234 79.75542847 -49.97265625 78.67700195 C-42.52267315 65.80378537 -33.95772696 52.70975247 -23.2421875 42.328125 C-15.92086503 35.19795651 -12.81577563 28.32347382 -9.6328125 18.66796875 C-7.5982343 12.57047518 -4.59963299 4.59963299 0 0 Z " fill="#C1C1C1" transform="translate(136,87)"/>
<path d="M0 0 C4.54354403 0.43687923 8.74826528 1.16272438 13.1484375 2.37890625 C20.66945491 4.28843196 28.26076581 5.30649046 35.94433594 6.30761719 C38.36514222 6.62371282 40.78412387 6.95165374 43.203125 7.28125 C56.07901545 9.01044847 68.86835929 10.19276682 81.875 10.0625 C82.76574219 10.05798828 83.65648437 10.05347656 84.57421875 10.04882812 C86.71617671 10.03731222 88.85809887 10.01939347 91 10 C91 7.36 91 4.72 91 2 C102.67908462 10.55455029 102.67908462 10.55455029 106 14 C106 14.66 106 15.32 106 16 C101.00063249 16.81447403 96.14294826 17.15899748 91.07421875 17.16796875 C89.96376945 17.17452484 89.96376945 17.17452484 88.83088684 17.18121338 C57.75157379 17.31386663 28.62487163 14.45368967 0 1 C0 0.67 0 0.34 0 0 Z " fill="#9B9B9B" transform="translate(166,423)"/>
<path d="M0 0 C3.32801048 3.82565691 5.02007398 8.30738543 6.9375 12.9375 C7.29303955 13.79504883 7.6485791 14.65259766 8.01489258 15.53613281 C12.31543057 26.05492287 15.22328204 36.60687097 17.6875 47.6875 C17.90237061 48.65010742 18.11724121 49.61271484 18.33862305 50.60449219 C20.27372581 59.62001292 21.17614855 68.41072562 21.0625 77.625 C21.05798828 78.34300781 21.05347656 79.06101562 21.04882812 79.80078125 C21.03727405 81.53389208 21.01935158 83.2669587 21 85 C17 85 17 85 14 83 C13.49511719 80.66625977 13.49511719 80.66625977 13.296875 77.69140625 C13.20736572 76.56887451 13.11785645 75.44634277 13.02563477 74.28979492 C12.93467529 73.0597876 12.84371582 71.82978027 12.75 70.5625 C11.71167552 58.77121868 9.93440891 47.28334184 7.5625 35.6875 C7.41719849 34.96990509 7.27189697 34.25231018 7.12219238 33.51296997 C5.38540302 24.98385795 3.45276857 16.52247301 1.24110413 8.10319519 C0.51627083 5.30490783 0 2.90637223 0 0 Z " fill="#9B9B9B" transform="translate(422,152)"/>
<path d="M0 0 C4.70408958 3.90339348 8.92654254 7.99162637 13.11328125 12.44140625 C15.53123505 14.58451821 17.59026246 16.00071923 20.35546875 17.58984375 C32.16684158 24.70296683 32.16684158 24.70296683 33.765625 31.02978516 C34.48327044 38.38885465 33.94510705 45.68290421 33 53 C26.25 49.25 26.25 49.25 24 47 C23.96657335 45.11348331 23.94232654 43.22605114 23.97924805 41.33959961 C24.04266361 34.38104663 23.7063407 29.67246303 18.6875 24.4375 C17.30352794 23.1395262 15.9192649 21.84184379 14.52929688 20.55029297 C11.4971379 17.47650473 9.00070892 13.96491404 6.4375 10.5 C5.91309326 9.80447021 5.38868652 9.10894043 4.84838867 8.39233398 C2.7366784 5.55333827 1.12911913 3.38735738 0 0 Z " fill="#C3C3C3" transform="translate(102,353)"/>
<path d="M0 0 C-0.99 2.97 -1.98 5.94 -3 9 C-1.88625 9.0825 -0.7725 9.165 0.375 9.25 C5.6151219 9.87919026 10.20241234 11.88630871 15 14 C11.52325726 15.15891425 9.22998491 14.94076807 5.58203125 14.66015625 C4.32841797 14.56669922 3.07480469 14.47324219 1.78320312 14.37695312 C0.47287109 14.27318359 -0.83746094 14.16941406 -2.1875 14.0625 C-3.52274441 13.96103372 -4.85803062 13.86011582 -6.19335938 13.75976562 C-9.46269143 13.51191013 -12.73148972 13.25843152 -16 13 C-14.1777866 8.92365706 -11.55232577 6.82208493 -8 4.25 C-7.18015625 3.63318359 -7.18015625 3.63318359 -6.34375 3.00390625 C-2.27200997 0 -2.27200997 0 0 0 Z " fill="#5B8ECB" transform="translate(310,58)"/>
<path d="M0 0 C2.97 0.33 5.94 0.66 9 1 C9 6.94 9 12.88 9 19 C2 15 2 15 0 13 C-0.1953125 9.9609375 -0.1953125 9.9609375 -0.125 6.375 C-0.10695313 5.18648438 -0.08890625 3.99796875 -0.0703125 2.7734375 C-0.04710938 1.85820312 -0.02390625 0.94296875 0 0 Z " fill="#9B9B9B" transform="translate(126,387)"/>
<path d="M0 0 C-17.23404255 16 -17.23404255 16 -22 16 C-22 13.36 -22 10.72 -22 8 C-19.77208002 6.87247351 -17.54274113 5.74791861 -15.3125 4.625 C-14.68666016 4.30789062 -14.06082031 3.99078125 -13.41601562 3.6640625 C-3.68330832 -1.22776944 -3.68330832 -1.22776944 0 0 Z " fill="#5D90CE" transform="translate(63,202)"/>
<path d="M0 0 C4.53765087 0.72602414 7.11203042 1.59710875 10 5.25 C12.61713693 9.10123401 14.80214896 13.18031869 16.9375 17.3125 C17.25654297 17.92319336 17.57558594 18.53388672 17.90429688 19.16308594 C20.12067239 23.63798282 20.12067239 23.63798282 19 27 C18.5875 26.32195312 18.175 25.64390625 17.75 24.9453125 C13.58461979 18.232356 9.03300019 12.08110951 4 6 C0 1.12739965 0 1.12739965 0 0 Z " fill="#5C8FCD" transform="translate(356,86)"/>
<path d="M0 0 C0.33 0 0.66 0 1 0 C1 7.26 1 14.52 1 22 C0.67 22 0.34 22 0 22 C-0.20625 20.9275 -0.4125 19.855 -0.625 18.75 C-2.27189075 14.25847976 -3.9443775 13.32982569 -8 11 C-8.33 10.34 -8.66 9.68 -9 9 C-8.51789063 8.60167969 -8.03578125 8.20335937 -7.5390625 7.79296875 C-6.90742188 7.26316406 -6.27578125 6.73335937 -5.625 6.1875 C-4.99851562 5.66542969 -4.37203125 5.14335937 -3.7265625 4.60546875 C-1.7778952 2.91774261 -1.7778952 2.91774261 0 0 Z " fill="#1F365B" transform="translate(450,239)"/>
<path d="M0 0 C0.33 0 0.66 0 1 0 C1 5.61 1 11.22 1 17 C1.99 17.33 2.98 17.66 4 18 C3.34 23.61 2.68 29.22 2 35 C1.67 35 1.34 35 1 35 C0.12504821 27.0800587 -0.12590042 19.2765687 -0.0625 11.3125 C-0.05798828 10.21744141 -0.05347656 9.12238281 -0.04882812 7.99414062 C-0.03719156 5.32936691 -0.02084564 2.66471483 0 0 Z " fill="#4A75A9" transform="translate(150,374)"/>
<path d="M0 0 C0 0.33 0 0.66 0 1 C-0.98097656 0.99871094 -1.96195312 0.99742188 -2.97265625 0.99609375 C-8.57083917 1.79583417 -11.7519331 6.11391917 -15.4375 10.0625 C-16.16904297 10.82111328 -16.90058594 11.57972656 -17.65429688 12.36132812 C-19.45055419 14.2280269 -21.2312871 16.10724502 -23 18 C-23 15 -23 15 -21.80664062 13.46606445 C-21.26201172 12.937146 -20.71738281 12.40822754 -20.15625 11.86328125 C-19.56972656 11.28642578 -18.98320312 10.70957031 -18.37890625 10.11523438 C-17.75886719 9.52033203 -17.13882812 8.92542969 -16.5 8.3125 C-15.87996094 7.70599609 -15.25992187 7.09949219 -14.62109375 6.47460938 C-13.08735293 4.97626257 -11.54451802 3.48723507 -10 2 C-10.66 1.34 -11.32 0.68 -12 0 C-7.91556885 -1.53166168 -4.20544343 -0.63081652 0 0 Z " fill="#D4DAE3" transform="translate(281,78)"/>
<path d="M0 0 C0.33 0 0.66 0 1 0 C1.33 4.95 1.66 9.9 2 15 C-0.42130331 12.57869669 -0.52840504 11.19888623 -1.125 7.875 C-1.29257813 6.96492187 -1.46015625 6.05484375 -1.6328125 5.1171875 C-1.75398437 4.41851562 -1.87515625 3.71984375 -2 3 C-1.34 3 -0.68 3 0 3 C0 2.01 0 1.02 0 0 Z " fill="#4976AF" transform="translate(159,210)"/>
<path d="M0 0 C-4.95 1.65 -9.9 3.3 -15 5 C-14.67 4.01 -14.34 3.02 -14 2 C-11.85546875 1.015625 -11.85546875 1.015625 -9.1875 0.25 C-8.31480469 -0.01296875 -7.44210938 -0.2759375 -6.54296875 -0.546875 C-4 -1 -4 -1 0 0 Z " fill="#5282BE" transform="translate(252,90)"/>
</svg>
